<?xml version="1.0" encoding="UTF-8"?>
<svg id="Layer_1" data-name="Layer 1" xmlns="http://www.w3.org/2000/svg" viewBox="0 0 492.28 515.11">
  <defs>
    <style>
      .cls-1 {
        fill: #30409a;
        stroke: #2d2d85;
        stroke-miterlimit: 10;
        stroke-width: .25px;
      }
    </style>
  </defs>
  <path class="cls-1" d="M319.13,276.22h.22v.15c-1.54,0-3,0-4.54-.07,1.47,0,2.93-.07,4.32-.07Z"/>
  <path class="cls-1" d="M377.69,199.34h-.88.88Z"/>
  <path class="cls-1" d="M461.96,352.95c-.37.44-.66.88-1.03,1.25-7.91-7.55-17.15-13.85-27.26-18.69-.66-.29-1.17-.59-1.76-.81-6.52-3-13.41-5.28-20.59-6.89-.07,0-.15,0-.22-.07-7.62-1.69-15.68-2.64-23.96-2.64h-1.83c11.95,0,21.69-9.6,21.69-21.4v-.59c0-14.88-12.17-26.97-27.19-26.97h-59.73c39.43-2.64,70.72-35.1,71.67-74.97,41.7,7.62,72.33,34.74,84.5,74.16,8.57,27.99,4.25,53.94-14.29,77.61Z"/>
  <path class="cls-1" d="M460.94,354.19c-7.91-7.55-17.15-13.85-27.26-18.69-.66-.29-1.17-.59-1.76-.81-6.52-3-13.41-5.28-20.59-6.89-.07,0-.15,0-.22-.07-7.62-1.69-15.68-2.64-23.96-2.64h-65.66v-48.95s-.73,0-2.13.22c-12.39,2.2-75.04,23.67-77.97,238.62h160.57c49.83,0,90.21-38.62,90.21-86.26v-3.15c0-27.92-11.95-53.2-31.22-71.38ZM407.44,421.4c0,11.14-9.45,20.23-21.11,20.23h-66.69v-49.39h63.24c8.94,0,16.78,4.54,21.03,11.43.29.44.51.81.73,1.25,1.76,3.22,2.78,6.82,2.78,10.77v5.72Z"/>
  <path class="cls-1" d="M468.02,88.44c-1.22,1.31-2.76,2.23-4.37,2.84-23.93,9.19-47.9,18.37-71.83,27.56-4.64,1.79-9.01,1.09-13.17-1.44-13.52-8.27-27.6-15.49-42.52-20.91-16.97-6.21-34.43-10.41-52.45-12.42-9.06-1.05-18.11-1.53-26.33-1.84-43.57.7-83.51,11.07-119.91,33.82-5.73,3.59-11.16,3.98-17.28,1.53-21.52-8.53-43.09-16.89-64.66-25.33-2.19-.83-4.37-1.62-6.52-2.49-2.84-1.18-4.33-3.37-4.29-6.43.04-3.19,1.71-5.38,4.64-6.52,9.36-3.67,18.77-7.35,28.17-10.94C132.1,44.95,186.7,24.09,241.29,3.13c10.54-4.02,20.87-4.02,31.45.09,62.86,24.32,125.81,48.6,188.72,72.92,2.32.87,4.68,1.71,6.47,3.59,2.58,2.67,2.62,6.04.09,8.71Z"/>
  <path class="cls-1" d="M386.26,134.89c-.17,22.09-.09,44.14-.13,66.23v2.8c-85.44-36.61-170.74-37.62-256.13-.22-.22-3.89-.52-7.31-.57-10.72-.04-19.55.09-39.11-.13-58.66-.09-6.34,2.58-10.5,7.96-13.52,19.77-11.2,40.51-19.9,62.56-25.37,27.6-6.82,55.56-8.71,83.82-5.73,28.57,3.02,55.6,11.37,81.28,24.15,4.33,2.14,8.53,4.55,12.82,6.74,5.91,2.97,8.57,7.66,8.53,14.3Z"/>
  <path class="cls-1" d="M391.76,201.18c-.95,39.87-32.25,72.33-71.67,74.97h-.73v.07h-.22c-1.39,0-2.86.07-4.32.07h-46.98c-6.52,0-12.46,2.35-17.08,6.3-5.79,4.84-9.38,12.09-9.38,20.15v212.23h-2.2c-.59,0-1.25,0-1.83-.07-55.84-.95-100.69-46.39-100.69-102.38l-.07-125.76H.12c0-24.26,10.7-46.17,27.99-62.07,17.3-15.83,41.26-25.65,67.64-25.65h40.6s50.71.29,86.4.29h154.92c4.84.37,9.53.95,14.07,1.83Z"/>
  <path class="cls-1" d="M320.09,276.15c-.22,0-.51.07-.73.07v-.07h.73Z"/>
  <line class="cls-1" x1="228.33" y1="152.36" x2="228.33" y2="152.26"/>
</svg>